<svg xmlns="http://www.w3.org/2000/svg" width="1600" height="1000" viewBox="0 0 1600 1000" font-family="Segoe UI, Arial, sans-serif">
<defs><pattern id="dots" width="20" height="20" patternUnits="userSpaceOnUse"><circle cx="2" cy="2" r="1.3" fill="#d6dde8"/></pattern></defs>
<rect width="1600" height="1000" fill="#f7f9fc"/><rect width="1600" height="1000" fill="url(#dots)"/>
<text x="50" y="58" font-size="40" font-weight="800" fill="#14213d">Engelden Kaçan Robot Araba Kiti — Bağlantı Şeması</text>
<text x="50" y="92" font-size="21" fill="#5c6672">2WD Şasi + Arduino UNO + L298N + HC-SR04 + SG90 Servo + 18650 Pil Yuvası (7.4V) — blogdaki kodla uyumludur</text>
<text x="1550" y="52" text-anchor="end" font-size="22" font-weight="800" fill="#c8102e">ATÖLYE ELEKTRONİK</text>
<text x="1550" y="84" text-anchor="end" font-size="18" fill="#5c6672">Model: AE2WDEKRBT-LI · atolyeelektronik.com</text>
<rect x="300" y="280" width="300" height="380" rx="14" fill="#1a9e9a"/><text x="450.0" y="462.0" text-anchor="middle" font-size="34" font-weight="700" fill="#fff">Arduino</text><text x="450.0" y="494.0" text-anchor="middle" font-size="20" fill="#ffffff">UNO R3</text><text x="586" y="363.0" text-anchor="end" font-size="21" font-weight="700" fill="#fff">D5</text><circle cx="600" cy="356.0" r="5" fill="#fff" stroke="#14213d" stroke-width="2"/><text x="586" y="404.8" text-anchor="end" font-size="21" font-weight="700" fill="#fff">D6</text><circle cx="600" cy="397.8" r="5" fill="#fff" stroke="#14213d" stroke-width="2"/><text x="586" y="446.6" text-anchor="end" font-size="21" font-weight="700" fill="#fff">D9</text><circle cx="600" cy="439.6" r="5" fill="#fff" stroke="#14213d" stroke-width="2"/><text x="586" y="488.4" text-anchor="end" font-size="21" font-weight="700" fill="#fff">D10</text><circle cx="600" cy="481.4" r="5" fill="#fff" stroke="#14213d" stroke-width="2"/><text x="390.0" y="270" text-anchor="middle" font-size="20" font-weight="700" fill="#14213d">5V</text><circle cx="390.0" cy="280" r="5" fill="#fff" stroke="#14213d" stroke-width="2"/><text x="456.0" y="270" text-anchor="middle" font-size="20" font-weight="700" fill="#14213d">VIN</text><circle cx="456.0" cy="280" r="5" fill="#fff" stroke="#14213d" stroke-width="2"/><text x="450.0" y="686" text-anchor="middle" font-size="20" font-weight="700" fill="#14213d">GND</text><circle cx="450.0" cy="660" r="5" fill="#fff" stroke="#14213d" stroke-width="2"/><rect x="320" y="300" width="56" height="40" rx="6" fill="#cfd8e3"/><rect x="800" y="270" width="280" height="320" rx="14" fill="#c62828"/><text x="940.0" y="422.0" text-anchor="middle" font-size="30" font-weight="700" fill="#fff">L298N</text><text x="940.0" y="454.0" text-anchor="middle" font-size="20" fill="#ffd5d5">Motor Sürücü</text><text x="814" y="318.6" font-size="21" font-weight="700" fill="#fff">ENA</text><circle cx="800" cy="311.6" r="5" fill="#fff" stroke="#14213d" stroke-width="2"/><text x="814" y="366.6" font-size="21" font-weight="700" fill="#fff">IN1</text><circle cx="800" cy="359.6" r="5" fill="#fff" stroke="#14213d" stroke-width="2"/><text x="814" y="408.20000000000005" font-size="21" font-weight="700" fill="#fff">IN2</text><circle cx="800" cy="401.20000000000005" r="5" fill="#fff" stroke="#14213d" stroke-width="2"/><text x="814" y="449.8" font-size="21" font-weight="700" fill="#fff">IN3</text><circle cx="800" cy="442.8" r="5" fill="#fff" stroke="#14213d" stroke-width="2"/><text x="814" y="491.4" font-size="21" font-weight="700" fill="#fff">IN4</text><circle cx="800" cy="484.4" r="5" fill="#fff" stroke="#14213d" stroke-width="2"/><text x="814" y="539.4" font-size="21" font-weight="700" fill="#fff">ENB</text><circle cx="800" cy="532.4" r="5" fill="#fff" stroke="#14213d" stroke-width="2"/><text x="1066" y="315.4" text-anchor="end" font-size="21" font-weight="700" fill="#fff">OUT1</text><circle cx="1080" cy="308.4" r="5" fill="#fff" stroke="#14213d" stroke-width="2"/><text x="1066" y="353.8" text-anchor="end" font-size="21" font-weight="700" fill="#fff">OUT2</text><circle cx="1080" cy="346.8" r="5" fill="#fff" stroke="#14213d" stroke-width="2"/><text x="1066" y="475.4" text-anchor="end" font-size="21" font-weight="700" fill="#fff">OUT3</text><circle cx="1080" cy="468.4" r="5" fill="#fff" stroke="#14213d" stroke-width="2"/><text x="1066" y="513.8" text-anchor="end" font-size="21" font-weight="700" fill="#fff">OUT4</text><circle cx="1080" cy="506.8" r="5" fill="#fff" stroke="#14213d" stroke-width="2"/><text x="850.4" y="616" text-anchor="middle" font-size="20" font-weight="700" fill="#14213d">+12V</text><circle cx="850.4" cy="590" r="5" fill="#fff" stroke="#14213d" stroke-width="2"/><text x="940.0" y="616" text-anchor="middle" font-size="20" font-weight="700" fill="#14213d">GND</text><circle cx="940.0" cy="590" r="5" fill="#fff" stroke="#14213d" stroke-width="2"/><text x="1029.6" y="616" text-anchor="middle" font-size="20" font-weight="700" fill="#14213d">+5V</text><circle cx="1029.6" cy="590" r="5" fill="#fff" stroke="#14213d" stroke-width="2"/><rect x="905" y="320" width="80" height="70" rx="8" fill="#2b2f36"/><text x="945" y="362" text-anchor="middle" font-size="14" fill="#fff">L298</text><rect x="820" y="570" width="240" height="22" rx="4" fill="#2e7d32"/><rect x="610" y="298" width="170" height="30" rx="6" fill="#fff3c4" stroke="#e0b100" stroke-width="2"/><text x="695.0" y="319" text-anchor="middle" font-size="17" font-weight="700" fill="#5a4a00">JUMPER TAKILI</text><rect x="610" y="518" width="170" height="30" rx="6" fill="#fff3c4" stroke="#e0b100" stroke-width="2"/><text x="695.0" y="539" text-anchor="middle" font-size="17" font-weight="700" fill="#5a4a00">JUMPER TAKILI</text><rect x="1100" y="550" width="200" height="30" rx="6" fill="#fff3c4" stroke="#e0b100" stroke-width="2"/><text x="1200.0" y="571" text-anchor="middle" font-size="17" font-weight="700" fill="#5a4a00">5V jumper takılı olmalı</text><text x="1030" y="622" text-anchor="middle" font-size="15" font-weight="500" fill="#5c6672">(sensör beslemesi)</text><rect x="1230" y="280" width="180" height="100" rx="14" fill="#1f2a44"/><text x="1320.0" y="322.0" text-anchor="middle" font-size="24" font-weight="700" fill="#fff">SOL MOTOR</text><text x="1320.0" y="354.0" text-anchor="middle" font-size="20" fill="#cfd8e3">(Motor A)</text><text x="1244" y="322.0" font-size="21" font-weight="700" fill="#fff"></text><circle cx="1230" cy="315.0" r="5" fill="#fff" stroke="#14213d" stroke-width="2"/><text x="1244" y="352.0" font-size="21" font-weight="700" fill="#fff"> </text><circle cx="1230" cy="345.0" r="5" fill="#fff" stroke="#14213d" stroke-width="2"/><circle cx="1465" cy="330" r="36" fill="#2b2f36"/><circle cx="1465" cy="330" r="12" fill="#f39c35"/><rect x="1230" y="440" width="180" height="100" rx="14" fill="#1f2a44"/><text x="1320.0" y="482.0" text-anchor="middle" font-size="24" font-weight="700" fill="#fff">SAĞ MOTOR</text><text x="1320.0" y="514.0" text-anchor="middle" font-size="20" fill="#cfd8e3">(Motor B)</text><text x="1244" y="482.0" font-size="21" font-weight="700" fill="#fff"></text><circle cx="1230" cy="475.0" r="5" fill="#fff" stroke="#14213d" stroke-width="2"/><text x="1244" y="512.0" font-size="21" font-weight="700" fill="#fff"> </text><circle cx="1230" cy="505.0" r="5" fill="#fff" stroke="#14213d" stroke-width="2"/><circle cx="1465" cy="490" r="36" fill="#2b2f36"/><circle cx="1465" cy="490" r="12" fill="#f39c35"/><rect x="540" y="760" width="280" height="110" rx="12" fill="#2b2f36"/><rect x="562" y="780.0" width="236" height="29.0" rx="8" fill="#3d7a4a"/><text x="680.0" y="801.5" text-anchor="middle" font-size="18" font-weight="700" fill="#fff">18650</text><rect x="562" y="819.0" width="236" height="29.0" rx="8" fill="#3d7a4a"/><text x="680.0" y="840.5" text-anchor="middle" font-size="18" font-weight="700" fill="#fff">18650</text><text x="576" y="752" font-size="22" font-weight="700" fill="#e53935">+</text><text x="784" y="894" font-size="22" font-weight="700" fill="#1a1a1a">−</text><text x="680.0" y="900" text-anchor="middle" font-size="20" font-weight="700" fill="#14213d">18650 Pil Yuvası (2'li seri) = 7.4V</text><text x="680.0" y="924" text-anchor="middle" font-size="17" fill="#5c6672">2 x 18650 Li-Ion (pil dahil değildir)</text><path d="M 600 356.0 L 800 359.6" fill="none" stroke="#f39c35" stroke-width="5" stroke-linejoin="round" stroke-linecap="round"/><circle cx="600" cy="356.0" r="6" fill="#f39c35"/><circle cx="800" cy="359.6" r="6" fill="#f39c35"/><path d="M 600 397.8 L 800 401.20000000000005" fill="none" stroke="#2e9e8f" stroke-width="5" stroke-linejoin="round" stroke-linecap="round"/><circle cx="600" cy="397.8" r="6" fill="#2e9e8f"/><circle cx="800" cy="401.20000000000005" r="6" fill="#2e9e8f"/><path d="M 600 439.6 L 800 442.8" fill="none" stroke="#3b6fc4" stroke-width="5" stroke-linejoin="round" stroke-linecap="round"/><circle cx="600" cy="439.6" r="6" fill="#3b6fc4"/><circle cx="800" cy="442.8" r="6" fill="#3b6fc4"/><path d="M 600 481.4 L 800 484.4" fill="none" stroke="#8e5ad4" stroke-width="5" stroke-linejoin="round" stroke-linecap="round"/><circle cx="600" cy="481.4" r="6" fill="#8e5ad4"/><circle cx="800" cy="484.4" r="6" fill="#8e5ad4"/><path d="M 1080 308.4 L 1230 315.0" fill="none" stroke="#e53935" stroke-width="5" stroke-linejoin="round" stroke-linecap="round"/><circle cx="1080" cy="308.4" r="6" fill="#e53935"/><circle cx="1230" cy="315.0" r="6" fill="#e53935"/><path d="M 1080 346.8 L 1230 345.0" fill="none" stroke="#1a1a1a" stroke-width="5" stroke-linejoin="round" stroke-linecap="round"/><circle cx="1080" cy="346.8" r="6" fill="#1a1a1a"/><circle cx="1230" cy="345.0" r="6" fill="#1a1a1a"/><path d="M 1080 468.4 L 1230 475.0" fill="none" stroke="#e53935" stroke-width="5" stroke-linejoin="round" stroke-linecap="round"/><circle cx="1080" cy="468.4" r="6" fill="#e53935"/><circle cx="1230" cy="475.0" r="6" fill="#e53935"/><path d="M 1080 506.8 L 1230 505.0" fill="none" stroke="#1a1a1a" stroke-width="5" stroke-linejoin="round" stroke-linecap="round"/><circle cx="1080" cy="506.8" r="6" fill="#1a1a1a"/><circle cx="1230" cy="505.0" r="6" fill="#1a1a1a"/><path d="M 576 760 L 576 720 L 850 720 L 850 590" fill="none" stroke="#e53935" stroke-width="5" stroke-linejoin="round" stroke-linecap="round"/><circle cx="850" cy="590" r="7" fill="#e53935"/><path d="M 850 720 L 1585 720 L 1585 130 L 456 130 L 456 280" fill="none" stroke="#e53935" stroke-width="5" stroke-linejoin="round" stroke-linecap="round"/><circle cx="456" cy="280" r="7" fill="#e53935"/><text x="900" y="112" text-anchor="middle" font-size="19" font-weight="700" fill="#e53935">Pil + (7.4V) → Arduino VIN</text><path d="M 784 870 L 784 905 L 100 905" fill="none" stroke="#1a1a1a" stroke-width="5" stroke-linejoin="round" stroke-linecap="round"/><path d="M 784 905 L 940 905 L 940 590" fill="none" stroke="#1a1a1a" stroke-width="5" stroke-linejoin="round" stroke-linecap="round"/><circle cx="940" cy="590" r="7" fill="#1a1a1a"/><path d="M 450 660 L 450 905" fill="none" stroke="#1a1a1a" stroke-width="5" stroke-linejoin="round" stroke-linecap="round"/><circle cx="450" cy="905" r="7" fill="#1a1a1a"/><circle cx="940" cy="905" r="7" fill="#1a1a1a"/><text x="60" y="913" text-anchor="start" font-size="22" font-weight="700" fill="#14213d">GND</text><text x="850" y="945" text-anchor="middle" font-size="19" font-weight="700" fill="#14213d">ORTAK GND HATTI</text><rect x="30" y="290" width="190" height="140" rx="14" fill="#1f2a44"/><text x="48" y="352.0" text-anchor="start" font-size="22" font-weight="700" fill="#fff">HC-SR04</text><text x="48" y="384.0" text-anchor="start" font-size="20" fill="#cfd8e3">Ultrasonik</text><text x="206" y="325.0" text-anchor="end" font-size="21" font-weight="700" fill="#fff">VCC</text><circle cx="220" cy="318.0" r="5" fill="#fff" stroke="#14213d" stroke-width="2"/><text x="206" y="360.0" text-anchor="end" font-size="21" font-weight="700" fill="#fff">TRIG</text><circle cx="220" cy="353.0" r="5" fill="#fff" stroke="#14213d" stroke-width="2"/><text x="206" y="395.0" text-anchor="end" font-size="21" font-weight="700" fill="#fff">ECHO</text><circle cx="220" cy="388.0" r="5" fill="#fff" stroke="#14213d" stroke-width="2"/><text x="172.5" y="280" text-anchor="middle" font-size="20" font-weight="700" fill="#14213d">GND</text><circle cx="172.5" cy="290" r="5" fill="#fff" stroke="#14213d" stroke-width="2"/><rect x="30" y="520" width="190" height="120" rx="14" fill="#1f2a44"/><text x="48" y="572.0" text-anchor="start" font-size="24" font-weight="700" fill="#fff">SG90</text><text x="48" y="604.0" text-anchor="start" font-size="20" fill="#cfd8e3">Servo</text><text x="206" y="563.0" text-anchor="end" font-size="21" font-weight="700" fill="#fff">SIG</text><circle cx="220" cy="556.0" r="5" fill="#fff" stroke="#14213d" stroke-width="2"/><text x="206" y="593.0" text-anchor="end" font-size="21" font-weight="700" fill="#fff">5V</text><circle cx="220" cy="586.0" r="5" fill="#fff" stroke="#14213d" stroke-width="2"/><text x="206" y="623.0" text-anchor="end" font-size="21" font-weight="700" fill="#fff">GND</text><circle cx="220" cy="616.0" r="5" fill="#fff" stroke="#14213d" stroke-width="2"/><text x="314" y="522.6" font-size="21" font-weight="700" fill="#fff">A0</text><circle cx="300" cy="515.6" r="5" fill="#fff" stroke="#14213d" stroke-width="2"/><text x="314" y="560.5999999999999" font-size="21" font-weight="700" fill="#fff">A1</text><circle cx="300" cy="553.5999999999999" r="5" fill="#fff" stroke="#14213d" stroke-width="2"/><text x="314" y="610.0" font-size="21" font-weight="700" fill="#fff">D3</text><circle cx="300" cy="603.0" r="5" fill="#fff" stroke="#14213d" stroke-width="2"/><path d="M 220 353.0 L 252 353 L 252 515.6 L 300 515.6" fill="none" stroke="#d8a800" stroke-width="5" stroke-linejoin="round" stroke-linecap="round"/><circle cx="220" cy="353.0" r="6" fill="#d8a800"/><circle cx="300" cy="515.6" r="6" fill="#d8a800"/><path d="M 220 388.0 L 238 388 L 238 553.6 L 300 553.5999999999999" fill="none" stroke="#0aa6c9" stroke-width="5" stroke-linejoin="round" stroke-linecap="round"/><circle cx="220" cy="388.0" r="6" fill="#0aa6c9"/><circle cx="300" cy="553.5999999999999" r="6" fill="#0aa6c9"/><path d="M 220 556.0 L 224 556 L 224 603 L 300 603.0" fill="none" stroke="#8e5ad4" stroke-width="5" stroke-linejoin="round" stroke-linecap="round"/><circle cx="220" cy="556.0" r="6" fill="#8e5ad4"/><circle cx="300" cy="603.0" r="6" fill="#8e5ad4"/><path d="M 220 318 L 280 318 L 280 690 L 1029.6 690 L 1029.6 590" fill="none" stroke="#e53935" stroke-width="5" stroke-linejoin="round" stroke-linecap="round"/><circle cx="220" cy="318" r="7" fill="#e53935"/><circle cx="1029.6" cy="590" r="7" fill="#e53935"/><path d="M 220 586 L 280 586" fill="none" stroke="#e53935" stroke-width="5" stroke-linejoin="round" stroke-linecap="round"/><circle cx="280" cy="586" r="7" fill="#e53935"/><circle cx="220" cy="586" r="7" fill="#e53935"/><text x="640" y="682" text-anchor="start" font-size="17" font-weight="500" fill="#e53935">L298N 5V çıkışı → HC-SR04 ve servo beslemesi</text><path d="M 172 290 L 172 230 L 15 230 L 15 905 L 100 905" fill="none" stroke="#1a1a1a" stroke-width="5" stroke-linejoin="round" stroke-linecap="round"/><circle cx="172" cy="290" r="7" fill="#1a1a1a"/><path d="M 220 616 L 230 616 L 230 905" fill="none" stroke="#1a1a1a" stroke-width="5" stroke-linejoin="round" stroke-linecap="round"/><circle cx="230" cy="905" r="7" fill="#1a1a1a"/>
<rect x="1090" y="680" width="490" height="327" rx="12" fill="#fff" stroke="#cfd8e3"/>
<rect x="1090" y="680" width="490" height="42" rx="12" fill="#14213d"/><rect x="1090" y="700" width="490" height="22" fill="#14213d"/>
<text x="1108" y="709" font-size="22" font-weight="700" fill="#fff">Önemli Notlar</text>
<text x="1110" y="742" font-size="16.5" fill="#14213d">• Kod pinleri: IN1→D5, IN2→D6, IN3→D9, IN4→D10;</text><text x="1110" y="767" font-size="16.5" fill="#14213d">   TRIG→A0, ECHO→A1; Servo→D3.</text><text x="1110" y="792" font-size="16.5" fill="#14213d">• HC-SR04 ve servo, L298N'in 5V çıkışından beslenir</text><text x="1110" y="817" font-size="16.5" fill="#14213d">   (Arduino regülatörü yorulmaz); GND ortak.</text><text x="1110" y="842" font-size="16.5" fill="#14213d">• Servo sinyal kablosu (turuncu) D3'e, kırmızı 5V'a,</text><text x="1110" y="867" font-size="16.5" fill="#14213d">   kahverengi GND'ye.</text><text x="1110" y="892" font-size="16.5" fill="#14213d">• Arduino pilden VIN ile beslenir (7.4V). 5V pinine</text><text x="1110" y="917" font-size="16.5" fill="#14213d">   güç verilmez.</text><text x="1110" y="942" font-size="16.5" fill="#14213d">• ENA, ENB ve L298N 5V jumper'ları takılı kalmalı.</text><text x="1110" y="967" font-size="16.5" fill="#14213d">• Kod yüklerken pil şalterini kapatın; motor ters</text><text x="1110" y="992" font-size="16.5" fill="#14213d">   dönerse OUT uçlarını değiştirin.</text>
</svg>